<svg width="163" height="38" viewBox="0 0 163 38" fill="none" xmlns="http://www.w3.org/2000/svg">
<rect y="7.875" width="25.4682" height="4.8183" fill="#006B3D"/>
<rect x="6.19525" y="14.0699" width="19.2732" height="4.8183" fill="#3CDA73"/>
<rect x="11.7017" y="20.2649" width="13.7666" height="4.8183" fill="#FFCA2D"/>
<rect x="15.8315" y="26.4598" width="9.6366" height="4.8183" fill="#FF7A49"/>
<rect x="19.7243" y="32.5773" width="5.7447" height="4.97874" fill="#FF2A3A"/>
<path d="M35.9201 29V7.0657H50.443V10.8892H40.5575V16.1157H49.4791V19.9393H40.5575V29H35.9201ZM53.4766 29V12.5493H58.0391V29H53.4766ZM55.7686 10.4287C55.0903 10.4287 54.5084 10.2038 54.0228 9.75394C53.5444 9.29698 53.3052 8.75076 53.3052 8.11529C53.3052 7.48697 53.5444 6.94789 54.0228 6.49807C54.5084 6.0411 55.0903 5.81262 55.7686 5.81262C56.4469 5.81262 57.0252 6.0411 57.5036 6.49807C57.9891 6.94789 58.2319 7.48697 58.2319 8.11529C58.2319 8.75076 57.9891 9.29698 57.5036 9.75394C57.0252 10.2038 56.4469 10.4287 55.7686 10.4287ZM66.2564 19.4894V29H61.6939V12.5493H66.0422V15.4517H66.235C66.5992 14.4949 67.2096 13.7381 68.0665 13.1812C68.9233 12.6171 69.9621 12.3351 71.1831 12.3351C72.3255 12.3351 73.3215 12.585 74.1712 13.0848C75.0209 13.5846 75.6813 14.2986 76.1526 15.2268C76.6238 16.1479 76.8595 17.2474 76.8595 18.5255V29H72.2969V19.3395C72.3041 18.3327 72.047 17.5473 71.5258 16.9833C71.0046 16.4121 70.287 16.1265 69.3731 16.1265C68.759 16.1265 68.2164 16.2585 67.7451 16.5227C67.281 16.7869 66.9169 17.1725 66.6527 17.6794C66.3957 18.1792 66.2636 18.7826 66.2564 19.4894ZM80.4554 29V12.5493H84.8786V15.4196H85.05C85.3499 14.3986 85.8533 13.6274 86.5601 13.1062C87.267 12.5778 88.081 12.3137 89.002 12.3137C89.2305 12.3137 89.4768 12.3279 89.741 12.3565C90.0052 12.3851 90.2373 12.4243 90.4372 12.4743V16.5227C90.223 16.4585 89.9267 16.4013 89.5482 16.3514C89.1698 16.3014 88.8235 16.2764 88.5094 16.2764C87.8382 16.2764 87.2384 16.4228 86.7101 16.7155C86.1888 17.0011 85.7747 17.401 85.4677 17.915C85.1678 18.4291 85.0179 19.0218 85.0179 19.6929V29H80.4554ZM97.0159 29.3106C95.9663 29.3106 95.0309 29.1285 94.2098 28.7644C93.3887 28.3931 92.739 27.8469 92.2606 27.1257C91.7893 26.3974 91.5537 25.4907 91.5537 24.4054C91.5537 23.4914 91.7215 22.7239 92.0571 22.1027C92.3927 21.4815 92.8496 20.9817 93.428 20.6033C94.0063 20.2249 94.6632 19.9393 95.3986 19.7465C96.1412 19.5537 96.9195 19.418 97.7334 19.3395C98.6902 19.2395 99.4613 19.1467 100.047 19.061C100.632 18.9682 101.057 18.8325 101.321 18.654C101.586 18.4755 101.718 18.2114 101.718 17.8615V17.7972C101.718 17.1189 101.503 16.5941 101.075 16.2228C100.654 15.8516 100.054 15.6659 99.2757 15.6659C98.4546 15.6659 97.8013 15.848 97.3158 16.2121C96.8302 16.5691 96.5089 17.019 96.3518 17.5616L92.1321 17.2189C92.3463 16.2193 92.7675 15.3553 93.3959 14.627C94.0242 13.8916 94.8346 13.3275 95.827 12.9348C96.8267 12.535 97.9833 12.3351 99.2971 12.3351C100.211 12.3351 101.086 12.4422 101.921 12.6564C102.764 12.8706 103.51 13.2026 104.16 13.6524C104.816 14.1022 105.334 14.6806 105.712 15.3875C106.091 16.0872 106.28 16.9261 106.28 17.9043V29H101.953V26.7187H101.825C101.561 27.2328 101.207 27.6862 100.764 28.0789C100.322 28.4645 99.7898 28.7679 99.1686 28.9893C98.5474 29.2035 97.8298 29.3106 97.0159 29.3106ZM98.3225 26.1618C98.9937 26.1618 99.5863 26.0297 100.1 25.7655C100.614 25.4942 101.018 25.1301 101.311 24.6731C101.603 24.2162 101.75 23.6985 101.75 23.1202V21.3744C101.607 21.4672 101.411 21.5529 101.161 21.6314C100.918 21.7028 100.643 21.7707 100.336 21.8349C100.029 21.8921 99.722 21.9456 99.4149 21.9956C99.1079 22.0384 98.8294 22.0777 98.5795 22.1134C98.044 22.1919 97.5764 22.3169 97.1765 22.4883C96.7767 22.6596 96.4661 22.8917 96.2447 23.1844C96.0234 23.47 95.9127 23.827 95.9127 24.2554C95.9127 24.8766 96.1376 25.3514 96.5875 25.6799C97.0444 26.0012 97.6228 26.1618 98.3225 26.1618ZM114.382 19.4894V29H109.82V12.5493H114.168V15.4517H114.361C114.725 14.4949 115.335 13.7381 116.192 13.1812C117.049 12.6171 118.088 12.3351 119.309 12.3351C120.451 12.3351 121.447 12.585 122.297 13.0848C123.147 13.5846 123.807 14.2986 124.278 15.2268C124.75 16.1479 124.985 17.2474 124.985 18.5255V29H120.423V19.3395C120.43 18.3327 120.173 17.5473 119.652 16.9833C119.13 16.4121 118.413 16.1265 117.499 16.1265C116.885 16.1265 116.342 16.2585 115.871 16.5227C115.407 16.7869 115.043 17.1725 114.779 17.6794C114.522 18.1792 114.389 18.7826 114.382 19.4894ZM132.715 24.2661L132.726 18.7933H133.39L138.659 12.5493H143.897L136.817 20.8175H135.736L132.715 24.2661ZM128.581 29V7.0657H133.144V29H128.581ZM138.863 29L134.022 21.8349L137.064 18.6112L144.207 29H138.863ZM159.823 17.2403L155.646 17.4973C155.574 17.1403 155.421 16.819 155.185 16.5334C154.95 16.2407 154.639 16.0086 154.253 15.8373C153.875 15.6588 153.422 15.5695 152.893 15.5695C152.186 15.5695 151.59 15.7195 151.105 16.0194C150.619 16.3121 150.376 16.7048 150.376 17.1975C150.376 17.5902 150.533 17.9222 150.848 18.1935C151.162 18.4648 151.701 18.6826 152.465 18.8468L155.442 19.4466C157.042 19.775 158.234 20.3034 159.019 21.0317C159.805 21.76 160.197 22.7167 160.197 23.902C160.197 24.9801 159.88 25.9262 159.244 26.7402C158.616 27.5541 157.752 28.1896 156.652 28.6466C155.56 29.0964 154.3 29.3213 152.872 29.3213C150.694 29.3213 148.959 28.8679 147.667 27.9611C146.381 27.0472 145.628 25.8048 145.407 24.234L149.894 23.9984C150.03 24.6624 150.358 25.1694 150.88 25.5192C151.401 25.8619 152.068 26.0333 152.882 26.0333C153.682 26.0333 154.325 25.8798 154.81 25.5728C155.303 25.2586 155.553 24.8552 155.56 24.3625C155.553 23.9484 155.378 23.6092 155.035 23.3451C154.692 23.0737 154.164 22.8667 153.45 22.7239L150.601 22.1562C148.995 21.8349 147.799 21.278 147.013 20.4855C146.235 19.6929 145.846 18.6826 145.846 17.4545C145.846 16.3978 146.132 15.4874 146.703 14.7234C147.281 13.9594 148.091 13.3704 149.134 12.9563C150.184 12.5421 151.412 12.3351 152.818 12.3351C154.896 12.3351 156.531 12.7742 157.723 13.6524C158.923 14.5306 159.623 15.7266 159.823 17.2403Z" fill="#071738"/>
</svg>
